<mxfile host="app.diagrams.net" modified="2024-07-13T05:02:27.273Z" agent="Mozilla/5.0 (X11; Ubuntu; Linux x86_64; rv:126.0) Gecko/20100101 Firefox/126.0" version="24.6.5" etag="3BWLMB9ydwFXT9ZmXTU3" type="github">
  <diagram name="Page-1" id="FZ-nptAkn4HWMAltJe_H">
    <mxGraphModel>
      <root>
        <mxCell id="0" />
        <mxCell id="1" parent="0" />
      </root>
    </mxGraphModel>
  </diagram>
</mxfile>
